<?xml version="1.0" standalone="no"?>
<!DOCTYPE svg PUBLIC "-//W3C//DTD SVG 20010904//EN"
 "http://www.w3.org/TR/2001/REC-SVG-20010904/DTD/svg10.dtd">
<svg version="1.0" xmlns="http://www.w3.org/2000/svg"
 width="1024.000000pt" height="1024.000000pt" viewBox="0 0 1024.000000 1024.000000"
 preserveAspectRatio="xMidYMid meet">
<metadata>
Created by potrace 1.14, written by Peter Selinger 2001-2017
</metadata>
<g transform="translate(0.000000,1024.000000) scale(0.100000,-0.100000)"
fill="#000000" stroke="none">
<path d="M5027 9335 c-1 -2 -69 -5 -152 -9 -82 -3 -168 -8 -190 -10 -22 -3
-69 -8 -105 -11 -36 -4 -74 -9 -85 -11 -10 -2 -37 -6 -60 -9 -42 -6 -133 -22
-175 -30 -14 -3 -37 -7 -52 -10 -16 -3 -58 -12 -95 -21 -38 -9 -75 -17 -83
-19 -8 -2 -76 -22 -151 -44 -532 -161 -996 -414 -1447 -789 -149 -123 -438
-413 -563 -562 -313 -376 -538 -754 -690 -1160 -22 -58 -44 -114 -49 -125 -29
-62 -139 -489 -155 -600 -4 -22 -8 -52 -11 -67 -2 -16 -6 -43 -9 -60 -3 -18
-7 -44 -10 -58 -4 -26 -11 -84 -20 -185 -3 -33 -8 -85 -11 -115 -7 -69 -7
-581 0 -635 2 -22 7 -67 10 -100 14 -151 17 -182 21 -205 39 -254 79 -439 142
-645 25 -82 48 -154 51 -160 4 -5 7 -14 9 -20 5 -25 76 -201 122 -304 46 -103
81 -170 146 -286 13 -22 35 -64 51 -92 15 -29 31 -53 36 -53 4 0 8 -5 8 -11 0
-6 14 -31 32 -57 18 -26 32 -49 32 -52 0 -10 202 -278 292 -386 151 -182 424
-451 619 -609 27 -22 57 -48 67 -58 10 -9 20 -17 23 -17 5 0 80 -55 119 -86
24 -20 185 -127 277 -184 173 -107 412 -223 663 -320 84 -33 390 -127 441
-136 16 -3 50 -10 75 -15 25 -6 54 -13 65 -15 61 -13 309 -53 365 -58 36 -4
92 -9 125 -12 33 -3 78 -8 100 -10 45 -6 571 -5 625 0 19 2 69 7 110 10 177
15 376 45 515 77 50 12 97 22 105 24 157 32 495 147 665 225 217 99 331 160
505 268 110 68 243 161 248 174 2 5 8 8 13 8 9 0 124 86 166 125 12 11 39 33
60 50 104 82 415 390 524 522 41 48 80 94 86 101 64 67 353 487 353 512 0 5 3
10 8 12 7 3 30 44 117 213 133 259 278 661 320 887 3 16 12 58 21 95 18 77 18
80 34 188 7 44 13 87 15 95 3 15 9 72 21 205 4 39 8 84 10 100 5 41 5 603 0
638 -3 15 -7 60 -11 100 -12 138 -19 194 -35 282 -5 28 -12 67 -15 88 -4 32
-35 177 -51 242 -3 11 -7 29 -8 40 -17 95 -147 472 -212 613 -92 198 -181 369
-228 442 -13 19 -50 77 -82 128 -33 51 -66 101 -74 112 -8 10 -23 29 -32 42
-67 92 -127 171 -153 200 -16 18 -55 62 -85 98 -133 159 -372 395 -550 545
-52 44 -106 90 -120 103 -14 12 -28 22 -32 22 -3 0 -13 6 -20 13 -40 38 -302
217 -318 217 -5 0 -10 4 -12 9 -3 9 -215 131 -228 131 -4 0 -13 7 -20 15 -6 8
-15 14 -18 13 -4 -1 -52 20 -107 46 -126 60 -167 78 -235 103 -30 12 -84 32
-120 46 -36 13 -105 37 -155 51 -49 15 -96 29 -103 31 -7 3 -14 5 -17 5 -3 1
-19 6 -37 11 -39 12 -26 9 -203 47 -77 17 -162 33 -188 37 -26 3 -69 10 -95
15 -77 14 -222 28 -372 35 -121 6 -359 12 -363 10z m473 -1408 c14 -3 45 -8
70 -11 24 -4 60 -11 80 -16 19 -5 46 -11 60 -14 51 -10 142 -37 163 -48 12 -6
24 -11 27 -10 18 6 159 -55 310 -133 85 -44 228 -134 280 -177 19 -16 40 -32
45 -36 38 -26 152 -128 215 -192 317 -323 462 -676 455 -1110 -2 -146 -10
-236 -22 -270 -3 -8 -7 -28 -10 -45 -20 -119 -117 -328 -215 -464 -140 -193
-262 -306 -430 -401 -231 -130 -323 -185 -326 -192 -2 -4 -8 -8 -14 -8 -6 0
-56 -30 -111 -67 -120 -81 -221 -178 -247 -236 -18 -40 -23 -64 -34 -163 -10
-84 -60 -143 -138 -160 -49 -11 -1048 -5 -1090 7 -53 14 -85 42 -110 96 -16
36 -18 60 -14 175 3 73 7 147 11 163 3 17 8 39 10 50 20 112 89 270 171 390
26 39 50 72 53 75 3 3 19 23 35 45 57 77 172 181 271 246 119 78 293 181 299
177 2 -2 12 4 22 13 11 9 39 27 64 40 97 51 362 232 413 281 83 81 118 160
123 279 5 126 -34 219 -135 318 -82 80 -87 84 -159 124 -243 137 -469 163
-780 92 -53 -12 -175 -77 -236 -125 -85 -67 -253 -233 -345 -340 -149 -173
-191 -202 -275 -186 -28 5 -112 56 -159 96 -7 6 -82 62 -167 125 -85 63 -159
118 -165 122 -5 5 -26 19 -45 33 -19 13 -37 27 -40 30 -3 4 -25 20 -50 37
-144 98 -182 197 -117 303 22 37 154 217 172 236 5 6 30 35 55 65 217 261 536
496 846 623 110 45 290 102 353 112 19 3 46 10 60 16 14 5 26 9 26 7 0 -2 97
11 130 17 11 2 49 7 85 10 36 4 66 8 68 9 6 5 436 -3 462 -8z m-253 -4212 c24
-4 46 -6 50 -7 19 -1 150 -53 173 -68 14 -9 43 -29 65 -43 58 -38 198 -174
232 -227 66 -100 90 -154 120 -271 3 -13 7 -76 8 -139 3 -105 -1 -138 -29
-255 -2 -5 -8 -22 -14 -37 -7 -16 -17 -40 -22 -54 -12 -31 -77 -132 -99 -155
-9 -9 -30 -31 -47 -50 -100 -110 -223 -182 -370 -219 -210 -53 -448 -14 -619
100 -66 44 -178 150 -203 193 -9 15 -20 27 -24 27 -4 0 -8 5 -8 11 0 6 -9 23
-19 38 -55 77 -93 218 -97 361 -7 245 71 429 254 604 112 106 298 188 442 195
30 2 56 4 58 5 3 4 98 -2 149 -9z"/>
</g>
</svg>
